<svg id="svg" xmlns="http://www.w3.org/2000/svg" xmlns:xlink="http://www.w3.org/1999/xlink" width="23"
     height="20" viewBox="0, 0, 400,343.80165289256195">
    <g id="svgg">
        <path id="path0"
              d="M69.461 11.876 C 46.234 27.664,55.122 60.331,82.645 60.331 C 116.869 60.331,118.108 11.414,83.953 8.672 C 76.756 8.094,74.188 8.662,69.461 11.876 M307.421 31.818 C 286.428 46.106,294.630 77.686,319.335 77.686 C 334.324 77.686,342.975 68.612,342.975 52.893 C 342.975 32.455,323.471 20.895,307.421 31.818 M51.050 71.702 C 42.355 74.809,35.753 79.991,32.522 86.246 C 29.014 93.036,3.306 188.500,3.306 194.736 C 3.306 210.842,23.913 212.109,28.242 196.270 C 29.296 192.412,34.098 174.752,38.912 157.025 L 47.666 124.793 48.213 223.421 L 48.760 322.049 52.767 326.314 C 58.189 332.084,68.877 332.304,74.092 326.753 C 77.631 322.986,77.686 322.090,77.711 268.489 C 77.736 214.385,78.294 208.529,83.241 210.427 C 85.498 211.293,85.883 218.403,86.300 266.830 L 86.777 322.243 91.112 326.576 C 97.173 332.634,106.689 332.608,111.927 326.519 L 115.702 322.130 115.814 222.635 C 115.883 161.795,116.508 124.425,117.423 126.446 C 118.246 128.264,123.122 145.744,128.258 165.289 C 137.844 201.774,140.796 208.262,147.809 208.266 C 150.767 208.268,165.088 218.816,180.579 232.402 L 185.124 236.389 185.124 281.737 C 185.124 326.608,185.162 327.112,188.766 329.636 C 197.314 335.623,199.077 330.962,200.000 299.937 C 200.599 279.799,201.394 271.982,202.893 271.485 C 204.491 270.954,204.959 277.164,204.959 298.942 C 204.959 329.001,206.433 333.886,214.653 331.049 C 221.170 328.800,221.488 326.429,221.488 279.956 L 221.488 234.923 233.471 225.197 C 248.750 212.797,248.879 212.728,252.878 214.868 C 255.868 216.468,267.769 213.035,267.769 210.572 C 267.769 210.231,271.034 197.857,275.024 183.075 C 279.015 168.293,282.805 153.728,283.446 150.708 C 284.087 147.689,284.923 145.529,285.304 145.910 C 285.684 146.290,282.266 169.380,277.708 197.220 C 273.151 225.061,269.421 248.233,269.421 248.713 C 269.421 249.194,273.512 249.587,278.512 249.587 L 287.603 249.587 287.603 284.380 C 287.603 327.432,288.674 330.579,303.321 330.579 C 314.707 330.579,315.702 326.972,315.702 285.728 L 315.702 249.587 319.835 249.587 L 323.967 249.587 323.967 286.489 C 323.967 326.500,324.209 327.550,334.251 331.089 C 347.358 335.708,350.356 327.546,350.833 285.950 L 351.240 250.413 360.744 249.918 C 366.760 249.604,370.247 248.694,370.246 247.438 C 370.245 245.566,357.186 168.717,353.945 151.509 C 350.813 134.879,355.107 147.412,362.630 176.860 C 372.433 215.232,375.900 220.509,387.758 215.106 C 396.031 211.337,395.762 208.486,382.404 158.371 C 364.013 89.372,363.497 88.756,323.418 87.885 C 278.105 86.901,275.214 89.423,261.216 142.149 C 246.483 197.641,247.764 194.588,235.046 204.522 L 223.967 213.175 202.696 213.199 L 181.425 213.223 171.711 205.372 C 166.367 201.054,161.993 196.311,161.990 194.833 C 161.982 191.471,137.911 100.834,134.527 91.427 C 131.486 82.971,121.435 73.556,112.927 71.194 C 103.875 68.680,58.462 69.053,51.050 71.702 M193.261 184.997 C 180.427 197.831,197.416 217.442,211.269 205.785 C 221.745 196.970,215.654 180.165,201.984 180.165 C 199.844 180.165,195.919 182.339,193.261 184.997 "
              stroke="none" fill="#000000" fill-rule="evenodd"></path>
    </g>
</svg>