<svg id="svg" xmlns="http://www.w3.org/2000/svg" xmlns:xlink="http://www.w3.org/1999/xlink" width="18"
     height="20" viewBox="0, 0, 400,452.17391304347825">
    <g id="svgg">
        <path id="path0"
              d="M99.978 22.283 C 69.920 42.740,81.992 85.870,117.775 85.870 C 145.937 85.870,162.435 54.004,146.129 31.104 C 136.317 17.324,113.634 12.988,99.978 22.283 M275.000 47.523 C 258.452 57.745,253.402 72.991,261.332 88.785 C 277.568 121.119,322.816 110.473,322.272 74.448 C 321.922 51.306,294.323 35.587,275.000 47.523 M75.271 100.949 C 65.572 104.488,53.524 115.371,50.137 123.655 C 46.204 133.272,13.039 258.800,13.113 263.790 C 13.275 274.811,25.317 281.759,36.271 277.153 C 44.201 273.819,43.872 274.688,59.729 215.220 C 66.167 191.074,71.993 170.761,72.674 170.080 C 73.356 169.398,73.913 227.744,73.913 299.736 L 73.913 430.632 79.249 435.968 C 86.750 443.469,99.499 443.343,106.686 435.697 L 111.957 430.090 112.582 356.349 C 113.178 286.202,113.405 282.609,117.241 282.609 C 123.648 282.609,123.913 285.685,123.913 360.059 L 123.913 430.632 129.249 435.968 C 136.374 443.093,147.634 443.131,155.857 436.058 L 161.957 430.812 161.957 301.276 C 161.957 230.031,162.446 171.742,163.043 171.745 C 163.641 171.748,170.423 195.470,178.113 224.462 C 194.442 286.016,194.482 286.123,202.083 288.773 C 218.408 294.464,221.488 288.507,239.307 216.772 C 247.488 183.836,246.290 197.303,234.916 266.134 C 228.865 302.759,223.913 333.188,223.913 333.754 C 223.913 334.320,229.293 334.783,235.870 334.783 L 247.826 334.783 247.826 380.578 C 247.826 426.908,248.666 432.631,256.333 438.518 C 262.276 443.080,273.582 441.833,279.447 435.968 L 284.783 430.632 284.783 382.708 L 284.783 334.783 290.217 334.783 L 295.652 334.783 295.652 382.316 C 295.652 427.112,295.912 430.178,300.158 435.576 C 308.265 445.883,330.396 440.874,330.452 428.720 C 330.461 426.674,330.584 404.701,330.725 379.891 L 330.982 334.783 343.752 334.783 C 359.343 334.783,359.139 342.622,345.578 264.579 C 339.559 229.939,334.992 201.240,335.428 200.804 C 335.864 200.368,340.895 217.862,346.608 239.679 C 359.764 289.928,364.099 296.474,379.552 289.433 C 390.594 284.402,390.239 280.580,372.610 214.662 C 347.833 122.017,347.551 121.701,289.744 121.787 C 245.280 121.853,230.744 129.538,222.993 157.075 C 221.228 163.347,217.395 177.283,214.477 188.043 C 211.558 198.804,208.615 206.141,207.936 204.348 C 207.258 202.554,201.918 183.275,196.070 161.504 C 179.836 101.067,177.597 99.194,120.652 98.394 C 93.143 98.008,81.542 98.661,75.271 100.949 "
              stroke="none" fill="#000000" fill-rule="evenodd"></path>
    </g>
</svg>