<svg id="svg" xmlns="http://www.w3.org/2000/svg" xmlns:xlink="http://www.w3.org/1999/xlink" width="27"
     height="20" viewBox="0, 0, 400,298.5294117647059">
    <g id="svgg">
        <path id="path0"
              d="M136.765 7.626 C 125.046 13.653,120.638 27.060,126.492 38.874 C 134.832 55.705,160.235 55.933,168.153 39.247 C 178.018 18.458,156.957 -2.759,136.765 7.626 M258.264 23.534 C 249.775 26.168,242.645 35.701,242.649 44.412 C 242.660 66.352,272.346 74.365,283.831 55.528 C 293.853 39.091,276.820 17.777,258.264 23.534 M115.005 63.424 C 103.188 69.273,100.119 77.522,78.708 160.973 C 75.549 173.287,74.865 174.543,68.299 180.091 L 61.271 186.029 40.967 186.765 C 15.529 187.686,17.114 186.168,8.280 218.085 C 1.192 243.695,0.993 248.561,7.037 248.507 C 12.011 248.462,13.473 245.788,18.359 227.803 L 23.315 209.559 23.422 247.835 C 23.535 288.252,24.245 292.682,30.598 292.625 C 37.031 292.566,37.467 290.953,38.235 264.395 C 39.203 230.948,41.668 231.305,42.647 265.035 L 43.382 290.375 47.580 291.849 C 56.655 295.035,57.353 291.786,57.353 246.321 L 57.353 206.203 70.956 195.264 C 78.438 189.247,86.396 183.864,88.640 183.301 C 95.948 181.469,97.766 177.839,105.000 150.640 C 118.745 98.962,117.352 93.986,117.510 195.334 L 117.647 284.050 121.946 288.348 C 126.785 293.188,130.486 293.688,136.901 290.371 C 143.756 286.826,144.118 283.958,144.118 233.079 C 144.118 185.098,144.526 181.361,149.329 185.348 C 151.125 186.838,151.471 194.994,151.471 235.932 C 151.471 282.929,151.581 284.858,154.452 287.940 C 160.280 294.196,171.364 293.273,175.424 286.195 C 176.741 283.899,177.398 260.326,177.941 195.891 L 178.676 108.694 185.914 136.333 C 198.128 182.980,199.456 186.678,204.791 188.921 C 215.141 193.273,217.496 189.689,226.512 155.863 C 230.817 139.712,234.537 126.694,234.778 126.935 C 235.019 127.176,231.654 147.845,227.300 172.866 C 218.330 224.414,218.212 220.588,228.763 220.588 L 236.765 220.588 236.765 251.401 C 236.765 284.155,237.466 288.213,243.614 291.014 C 249.342 293.624,252.869 292.945,257.466 288.348 L 261.765 284.050 261.765 252.491 C 261.765 222.536,261.909 220.893,264.606 220.188 C 267.343 219.473,267.465 220.671,267.915 252.499 L 268.382 285.554 272.508 289.100 C 277.257 293.182,280.791 293.530,286.660 290.496 C 292.570 287.439,292.647 286.945,292.647 252.086 L 292.647 220.588 300.649 220.588 C 311.035 220.588,310.908 224.949,302.055 172.089 C 297.791 146.628,294.484 125.614,294.706 125.392 C 294.928 125.170,298.583 138.061,302.829 154.038 C 310.606 183.303,313.552 189.706,319.239 189.706 C 320.642 189.706,327.641 194.866,334.792 201.173 C 350.307 214.857,350.262 214.686,344.794 239.169 C 342.650 248.766,340.794 257.279,340.669 258.088 C 340.544 258.897,342.592 259.766,345.221 260.020 L 350.000 260.480 350.000 274.253 C 350.000 288.293,351.566 292.647,356.618 292.647 C 361.678 292.647,363.235 288.297,363.235 274.160 C 363.235 265.896,363.829 260.294,364.706 260.294 C 365.582 260.294,366.176 265.896,366.176 274.160 C 366.176 288.297,367.734 292.647,372.794 292.647 C 377.855 292.647,379.412 288.297,379.412 274.160 L 379.412 260.294 383.578 260.294 C 389.587 260.294,389.589 260.279,385.805 243.117 C 383.905 234.502,382.623 227.181,382.956 226.848 C 383.289 226.515,384.405 230.012,385.436 234.619 C 387.906 245.658,390.955 249.539,395.319 247.203 C 399.519 244.955,399.425 244.110,392.196 219.156 C 384.808 193.654,385.401 194.171,363.469 194.139 L 348.262 194.118 339.572 188.022 C 334.019 184.127,330.882 180.891,330.882 179.058 C 330.882 171.418,308.434 93.156,304.919 88.545 C 296.791 77.880,291.324 75.794,269.985 75.211 C 230.467 74.132,225.309 78.121,214.563 118.063 C 211.999 127.593,209.729 135.204,209.519 134.975 C 209.310 134.746,206.060 122.978,202.297 108.824 C 189.622 61.139,188.664 60.293,147.331 60.295 C 123.770 60.296,120.729 60.591,115.005 63.424 M31.551 162.433 C 26.640 167.344,26.640 175.303,31.551 180.214 C 39.481 188.144,52.941 182.550,52.941 171.324 C 52.941 164.152,47.613 158.824,40.441 158.824 C 36.795 158.824,34.043 159.941,31.551 162.433 M359.359 170.838 C 349.154 175.779,353.201 191.176,364.706 191.176 C 376.498 191.176,380.249 175.592,369.622 170.750 C 365.348 168.803,363.528 168.819,359.359 170.838 "
              stroke="none" fill="#000000" fill-rule="evenodd"></path>
    </g>
</svg>