<svg id="svg" xmlns="http://www.w3.org/2000/svg" xmlns:xlink="http://www.w3.org/1999/xlink" width="12"
     height="20" viewBox="0, 0, 400,547.3684210526316">
    <g id="svgg">
        <path id="path0"
              d="M247.917 17.398 C 217.752 32.784,217.390 76.811,247.302 92.071 C 293.682 115.733,333.331 51.374,291.557 20.237 C 281.845 12.999,259.403 11.539,247.917 17.398 M218.421 113.618 C 191.279 121.331,188.600 126.861,160.129 233.978 L 138.158 316.640 123.684 328.055 L 109.211 339.470 75.949 339.472 C 32.532 339.474,34.598 337.636,19.727 389.474 C 6.914 434.135,5.720 443.259,12.216 446.894 C 23.797 453.375,26.422 449.167,37.989 405.581 C 41.591 392.006,45.176 380.263,45.954 379.485 C 46.732 378.707,47.368 410.004,47.368 449.035 C 47.368 525.209,47.562 526.316,60.897 526.316 C 71.222 526.316,71.490 525.132,71.419 479.989 C 71.383 457.511,72.005 437.423,72.800 435.350 C 77.073 424.215,78.947 435.956,78.947 473.857 C 78.947 520.119,80.451 526.316,91.672 526.316 C 105.105 526.316,105.263 525.393,105.263 447.165 L 105.263 374.330 130.184 354.080 C 143.890 342.943,159.271 332.680,164.363 331.274 C 176.748 327.854,177.435 326.252,196.377 256.579 L 212.833 196.053 212.996 351.850 C 213.108 460.117,214.049 509.604,216.080 514.061 C 222.110 527.295,241.005 530.994,252.998 521.288 L 259.211 516.260 260.526 425.893 C 261.810 337.719,261.970 335.526,267.105 335.526 C 272.238 335.526,272.403 337.749,273.772 425.000 C 274.544 474.211,275.432 514.724,275.746 515.029 C 290.245 529.156,304.079 530.704,314.579 519.375 L 321.012 512.433 321.690 354.286 L 322.368 196.140 338.864 257.727 C 347.937 291.600,356.770 321.013,358.493 323.089 C 367.644 334.116,386.738 331.379,392.171 318.262 C 395.407 310.449,359.073 163.408,348.158 140.148 C 342.765 128.655,328.651 116.685,316.519 113.316 C 304.090 109.864,230.837 110.090,218.421 113.618 M66.729 289.452 C 63.627 290.703,59.186 294.444,56.861 297.765 C 43.434 316.934,65.424 341.339,86.365 330.510 C 111.730 317.393,93.249 278.749,66.729 289.452 "
              stroke="none" fill="#000000" fill-rule="evenodd"></path>
    </g>
</svg>