<svg id="svg" xmlns="http://www.w3.org/2000/svg" xmlns:xlink="http://www.w3.org/1999/xlink" width="10"
     height="20" viewBox="0, 0, 400,769.2307692307692">
    <g id="svgg">
        <path id="path0"
              d="M171.613 3.979 C 136.742 14.419,118.973 63.298,138.441 95.227 C 169.652 146.417,251.648 123.936,251.648 64.189 C 251.648 20.291,213.353 -8.519,171.613 3.979 M109.615 151.627 C 96.820 157.361,83.652 168.948,75.106 181.990 C 62.622 201.044,3.386 435.744,8.154 447.262 C 13.220 459.501,22.216 465.385,35.860 465.385 C 56.105 465.385,60.281 456.669,85.580 361.615 L 109.615 271.307 111.538 502.857 C 113.427 730.221,113.605 734.549,121.384 742.326 C 135.460 756.398,155.418 756.713,169.052 743.078 L 180.769 731.361 180.769 604.613 C 180.769 498.335,181.674 477.114,186.370 473.217 C 198.971 462.759,200.000 472.518,200.000 602.446 L 200.000 731.361 211.243 742.604 C 226.358 757.719,242.873 757.719,257.988 742.604 L 269.231 731.361 269.534 499.334 L 269.837 267.308 294.920 359.615 C 324.264 467.605,328.150 474.027,358.291 464.326 C 381.628 456.815,381.041 449.693,346.235 318.112 C 299.933 143.076,302.636 146.062,190.741 146.304 C 141.027 146.412,117.859 147.932,109.615 151.627 "
              stroke="none" fill="#000000" fill-rule="evenodd"></path>
    </g>
</svg>