<svg id="svg" xmlns="http://www.w3.org/2000/svg" xmlns:xlink="http://www.w3.org/1999/xlink" width="15"
     height="20" viewBox="0, 0, 400,533.3333333333334">
    <g id="svgg">
        <path id="path0"
              d="M122.278 7.643 C 108.401 14.615,100.000 28.493,100.000 44.444 C 100.000 87.756,158.707 101.894,177.485 63.105 C 195.237 26.433,158.445 -10.528,122.278 7.643 M85.854 109.241 C 64.749 120.383,60.534 129.625,37.542 215.183 C 11.958 310.390,11.791 319.444,35.627 319.444 C 49.370 319.444,53.947 310.537,68.293 255.877 C 75.665 227.790,82.083 205.970,82.555 207.387 C 83.027 208.805,77.146 246.125,69.485 290.321 C 61.824 334.518,55.556 371.651,55.556 372.839 C 55.556 374.028,63.056 375.000,72.222 375.000 L 88.889 375.000 88.889 437.016 C 88.889 504.520,89.962 508.944,106.944 511.426 C 132.232 515.122,136.111 504.564,136.111 432.034 C 136.111 376.852,136.291 375.000,141.667 375.000 C 147.054 375.000,147.222 376.852,147.222 436.237 L 147.222 497.475 154.040 504.293 C 164.358 514.611,178.685 514.429,188.194 503.859 C 194.275 497.101,194.444 495.260,194.444 435.956 L 194.444 375.000 209.722 375.000 C 228.357 375.000,228.209 385.512,211.021 282.794 C 203.332 236.847,197.437 198.860,197.919 198.377 C 198.402 197.894,205.312 222.020,213.275 251.990 C 227.619 305.974,232.353 316.667,241.910 316.667 C 248.352 316.667,295.058 357.095,298.441 365.599 C 300.691 371.255,292.907 415.186,284.348 445.139 C 283.211 449.120,284.754 450.000,292.868 450.000 L 302.778 450.000 302.778 476.162 C 302.778 507.878,303.824 511.111,314.088 511.111 C 325.260 511.111,327.778 504.502,327.778 475.183 C 327.778 460.246,328.908 450.000,330.556 450.000 C 332.232 450.000,333.333 461.604,333.333 479.256 C 333.333 507.045,333.647 508.631,339.583 510.872 C 352.589 515.783,355.293 510.714,356.153 479.815 L 356.944 451.389 365.972 450.518 C 376.658 449.488,376.486 451.208,369.238 417.751 C 366.068 403.123,363.993 390.637,364.625 390.005 C 365.258 389.372,367.365 396.050,369.308 404.844 C 373.292 422.876,376.290 427.778,383.333 427.778 C 395.029 427.778,395.003 421.637,383.126 378.802 C 368.668 326.654,369.839 327.778,329.929 327.778 L 299.362 327.778 283.096 315.972 C 274.149 309.479,266.792 302.383,266.748 300.204 C 266.256 276.150,221.944 132.147,211.658 121.178 C 192.962 101.240,115.017 93.844,85.854 109.241 M314.091 287.875 C 306.453 297.584,306.819 307.072,315.152 315.404 C 328.270 328.522,350.000 319.657,350.000 301.187 C 350.000 281.476,326.095 272.614,314.091 287.875 "
              stroke="none" fill="#000000" fill-rule="evenodd"></path>
    </g>
</svg>