<svg id="svg" xmlns="http://www.w3.org/2000/svg" xmlns:xlink="http://www.w3.org/1999/xlink" width="18"
     height="20" viewBox="0, 0, 400,434.51776649746193">
    <g id="svgg">
        <path id="path0"
              d="M187.322 33.796 C 173.023 40.846,166.742 64.297,175.877 76.532 C 195.719 103.109,233.280 90.759,231.017 58.403 C 229.451 36.023,207.678 23.761,187.322 33.796 M163.452 106.917 C 144.821 116.708,144.199 118.025,125.743 186.802 C 109.316 248.019,111.104 243.380,100.787 251.565 C 92.981 257.758,92.831 257.786,67.853 257.723 C 32.632 257.634,35.890 254.341,22.107 303.951 C 12.862 337.225,13.024 341.117,23.663 341.117 C 29.361 341.117,29.266 341.320,37.851 310.660 L 44.389 287.310 44.530 340.743 C 44.682 398.612,45.256 402.030,54.822 402.030 C 63.866 402.030,64.975 397.593,64.975 361.386 C 64.975 336.057,65.552 328.788,67.513 329.439 C 69.374 330.058,70.200 339.135,70.610 363.473 C 71.193 398.042,72.169 402.030,80.046 402.030 C 89.056 402.030,89.340 400.166,89.340 341.030 L 89.340 284.902 103.857 273.415 C 113.505 265.782,120.241 261.929,123.937 261.929 C 134.825 261.929,137.409 257.177,148.211 217.282 C 153.802 196.634,158.376 178.436,158.376 176.842 C 158.376 175.247,158.870 174.436,159.473 175.040 C 160.077 175.644,155.966 202.830,150.336 235.454 C 137.593 309.308,137.499 302.538,151.269 302.538 L 162.437 302.538 162.437 344.030 C 162.437 385.932,163.603 394.303,170.131 399.262 C 175.933 403.671,186.409 402.608,191.970 397.047 L 196.954 392.063 196.954 347.300 L 196.954 302.538 202.030 302.538 L 207.107 302.538 207.107 346.934 C 207.107 398.254,208.206 402.030,223.144 402.030 C 239.263 402.030,240.517 398.219,241.227 347.049 L 241.844 302.538 253.063 302.538 C 264.222 302.538,264.276 302.508,263.155 296.954 C 260.785 285.216,243.662 178.221,243.793 175.971 C 243.869 174.669,248.317 189.800,253.678 209.595 C 265.962 254.950,267.137 257.793,274.183 259.202 C 280.516 260.469,315.881 290.505,317.668 296.135 C 318.311 298.164,316.084 311.953,312.719 326.779 C 305.236 359.739,305.165 357.360,313.637 357.360 L 320.675 357.360 321.251 379.188 C 321.807 400.236,321.995 401.039,326.508 401.679 C 335.382 402.937,337.056 399.087,337.056 377.416 C 337.056 365.399,337.870 357.360,339.086 357.360 C 340.291 357.360,341.117 364.850,341.117 375.768 C 341.117 396.179,343.078 402.030,349.919 402.030 C 357.997 402.030,359.391 398.384,359.391 377.259 L 359.391 357.360 366.497 357.360 C 370.406 357.360,373.604 356.894,373.604 356.324 C 373.604 355.753,371.747 346.950,369.478 336.761 C 367.208 326.572,365.734 317.853,366.203 317.384 C 366.672 316.915,368.152 321.105,369.493 326.693 C 372.273 338.282,375.656 342.028,381.628 340.132 C 387.666 338.216,385.566 326.246,370.277 275.449 C 368.360 269.078,357.029 265.990,335.572 265.990 C 313.200 265.990,294.582 256.973,293.242 245.489 C 290.462 221.658,261.653 126.255,254.767 118.071 C 242.643 103.662,183.412 96.427,163.452 106.917 M59.524 219.304 C 45.795 224.835,48.514 247.143,63.565 252.469 C 68.498 254.215,80.366 249.042,83.085 243.960 C 91.030 229.116,75.501 212.866,59.524 219.304 M333.719 234.502 C 317.588 241.284,324.950 266.402,342.100 263.097 C 349.657 261.640,355.351 255.110,355.265 247.998 C 355.131 236.810,344.325 230.042,333.719 234.502 "
              stroke="none" fill="#000000" fill-rule="evenodd"></path>
    </g>
</svg>