<svg id="svg" xmlns="http://www.w3.org/2000/svg" xmlns:xlink="http://www.w3.org/1999/xlink" width="11"
     height="20" viewBox="0, 0, 400,738.4615384615386">
    <g id="svgg">
        <path id="path0"
              d="M177.148 23.871 C 152.891 36.397,144.188 49.882,144.421 74.576 C 145.099 146.594,249.934 152.467,256.813 80.872 C 261.318 33.989,217.821 2.866,177.148 23.871 M137.417 158.776 C 96.439 172.011,92.529 179.557,55.501 316.864 C 22.477 439.321,22.266 442.872,47.496 451.745 C 71.753 460.276,76.584 452.375,99.751 366.288 C 111.249 323.563,121.241 289.190,121.955 289.904 C 122.669 290.618,114.560 343.215,103.935 406.785 C 80.152 549.073,79.944 534.615,105.769 534.615 L 126.923 534.615 126.923 617.604 L 126.923 700.592 138.166 711.834 C 150.188 723.857,159.414 725.632,174.395 718.807 C 190.466 711.484,192.308 700.857,192.308 615.431 C 192.308 571.232,193.688 534.216,195.376 533.173 C 205.147 527.134,207.064 540.081,208.313 620.546 L 209.615 704.521 220.865 714.193 C 229.927 721.984,234.789 723.437,245.865 721.665 C 271.995 717.484,273.077 713.394,273.077 618.805 L 273.077 534.615 291.346 534.160 C 301.394 533.909,311.779 533.985,314.423 534.328 C 321.105 535.196,321.380 537.464,300.000 415.385 C 289.441 355.096,280.921 303.173,281.065 300.000 C 281.209 296.827,290.514 327.853,301.743 368.947 C 323.442 448.359,326.445 453.846,348.216 453.846 C 380.173 453.846,379.849 442.612,344.061 309.786 C 303.784 160.298,300.281 156.311,207.984 154.930 C 172.159 154.394,146.687 155.782,137.417 158.776 "
              stroke="none" fill="#000000" fill-rule="evenodd"></path>
    </g>
</svg>